<svg width="40" height="40" viewBox="0 0 40 40" fill="none" xmlns="http://www.w3.org/2000/svg">
<path d="M23.5928 11.0272C22.6806 10.0423 21.4065 9.5 20.0003 9.5C18.5865 9.5 17.3082 10.0391 16.4003 11.0178C15.4825 12.0073 15.0353 13.3522 15.1403 14.8044C15.3484 17.6694 17.5285 20 20.0003 20C22.472 20 24.6484 17.6698 24.8598 14.8053C24.9662 13.3662 24.5162 12.0242 23.5928 11.0272ZM28.2503 30.5H11.7503C11.5343 30.5028 11.3204 30.4574 11.1242 30.3672C10.928 30.2769 10.7543 30.1441 10.6159 29.9783C10.3112 29.6141 10.1884 29.1167 10.2793 28.6137C10.675 26.4191 11.9096 24.5755 13.8503 23.2812C15.5743 22.1323 17.7582 21.5 20.0003 21.5C22.2423 21.5 24.4262 22.1328 26.1503 23.2812C28.0909 24.575 29.3256 26.4186 29.7212 28.6133C29.8121 29.1162 29.6893 29.6136 29.3846 29.9778C29.2463 30.1437 29.0726 30.2766 28.8764 30.367C28.6802 30.4573 28.4663 30.5028 28.2503 30.5Z" fill="#112211"/>
</svg>
